<?xml version="1.0" encoding="utf-8"?>
<!DOCTYPE svg PUBLIC "-//W3C//DTD SVG 20010904//EN" "http://www.w3.org/TR/2001/REC-SVG-20010904/DTD/svg10.dtd">
<svg version="1.0" width="170.94pt" height="215.04pt" viewBox="0 0 170.94 215.04" preserveAspectRatio="xMidYMid meet" xmlns="http://www.w3.org/2000/svg">
  <g transform="translate(0,215.04)scale(.042,.042)" fill="#FFF">
    <path id="path1" d="M 1033 -5105 c -16 11 -28 13 -48 5 -45 -17 -127 -12 -163 10 -21 13 -50 20 -83 20 -48 0 -109 24 -109 42 0 4 -30 8 -68 8 -69 0 -135 22 -160 52 -8 10 -38 19 -73 23 -107 13 -157 81 -130 178 10 35 10 47 -3 72 -22 41 -20 93 5 139 13 25 19 49 15 67 -7 36 8 88 39 129 15 20 25 47 25 67 0 46 21 92 59 127 18 18 31 40 31 54 0 42 32 93 81 131 31 24 53 51 64 79 18 47 59 82 118 103 27 10 43 23 52 45 15 37 55 67 112 84 l 42 13 -77 50 c -42 28 -114 87 -159 132 -67 68 -89 99 -127 176 -55 116 -74 186 -85 327 -10 126 -24 159 -84 200 -125 87 -241 267 -287 446 -27 106 -27 265 -1 367 25 99 72 196 134 277 39 53 54 84 73 154 13 49 38 125 54 170 17 46 39 122 50 170 55 251 247 491 476 595 33 14 101 55 152 90 121 83 232 145 339 189 60 25 105 52 140 84 100 91 246 172 373 207 92 25 358 25 448 1 109 -31 260 -112 342 -183 41 -36 93 -73 115 -82 106 -45 326 -164 399 -217 44 -32 104 -69 131 -81 247 -107 456 -370 501 -630 4 -22 26 -95 50 -163 24 -67 49 -148 56 -180 6 -31 21 -68 33 -82 68 -80 130 -193 162 -295 29 -94 26 -325 -5 -425 -54 -171 -163 -331 -279 -412 -24 -16 -49 -41 -57 -57 -8 -15 -19 -79 -25 -142 -21 -226 -83 -371 -216 -505 -44 -45 -115 -104 -157 -132 l -77 -50 43 -11 c 54 -13 94 -45 112 -87 10 -23 22 -34 43 -39 50 -11 107 -59 125 -107 11 -28 30 -52 53 -68 49 -34 89 -91 97 -139 4 -26 14 -44 26 -51 27 -15 60 -82 60 -124 0 -22 12 -54 32 -86 24 -39 32 -63 33 -103 0 -29 8 -66 18 -84 21 -40 22 -104 2 -144 -13 -24 -14 -36 -4 -68 28 -93 -24 -164 -130 -176 -35 -4 -65 -13 -73 -23 -25 -30 -91 -52 -157 -52 -53 0 -69 -4 -88 -22 -17 -16 -39 -23 -85 -26 -36 -3 -75 -13 -92 -23 -34 -21 -118 -25 -161 -9 -20 8 -32 6 -48 -5 -28 -20 -108 -19 -155 1 -23 10 -63 16 -107 15 -55 -1 -77 3 -100 19 -21 14 -47 20 -88 20 -65 0 -98 14 -141 59 -24 25 -38 31 -69 31 -93 0 -243 170 -317 361 l -27 69 -12 -40 c -7 -23 -29 -74 -50 -115 -80 -154 -202 -275 -278 -275 -31 0 -45 -6 -69 -31 -42 -45 -76 -59 -139 -59 -36 0 -68 -7 -93 -20 -27 -15 -54 -20 -102 -19 -40 0 -79 -5 -102 -15 -47 -20 -127 -21 -155 -1 z m 225 204 l 51 41 17 -25 c 9 -14 14 -34 11 -45 -4 -17 1 -15 40 13 25 17 56 45 69 60 29 35 50 30 62 -15 l 9 -33 74 78 c 41 42 77 77 81 77 3 0 11 -14 17 -32 l 11 -31 26 24 c 42 39 140 192 164 255 49 131 49 216 -1 302 -26 46 -101 112 -128 112 -5 0 -45 -26 -88 -59 -219 -165 -517 -320 -835 -435 -54 -19 -98 -32 -98 -28 0 4 35 25 78 46 287 142 621 361 783 513 l 68 64 -14 40 c -59 165 -274 277 -534 279 l -74 0 23 -26 c 32 -33 20 -40 -79 -49 -42 -3 -94 -11 -115 -17 l -39 -10 29 -23 c 16 -13 27 -25 24 -27 -3 -2 -39 -14 -80 -27 -41 -13 -93 -33 -115 -44 l -40 -21 35 -6 c 70 -12 67 -21 -27 -69 -49 -25 -102 -56 -117 -69 l -29 -22 34 0 c 19 0 41 -5 49 -10 13 -9 13 -12 -1 -20 -30 -18 -136 -100 -149 -115 -11 -13 -8 -15 16 -15 63 0 63 -16 2 -71 -32 -27 -67 -64 -80 -81 l -22 -31 27 7 c 32 8 77 -2 77 -16 0 -6 -29 -38 -65 -72 -36 -34 -65 -67 -65 -74 0 -8 16 -12 45 -12 29 0 45 -4 45 -12 0 -18 -46 -114 -71 -149 l -20 -29 115 0 c 64 0 116 -3 116 -7 0 -4 -12 -20 -27 -35 l -27 -28 70 0 c 38 0 96 7 128 15 32 8 62 13 67 9 14 -8 11 -36 -8 -56 -15 -17 -15 -18 4 -18 12 0 57 11 102 23 44 13 83 22 86 19 11 -11 4 -37 -17 -59 -12 -13 -17 -23 -11 -23 19 0 127 40 160 60 19 11 38 20 43 20 18 0 21 -41 5 -66 l -16 -25 39 20 c 21 11 62 38 90 60 z m 1675 -35 c -3 18 -1 36 5 40 5 3 43 -9 84 -28 40 -19 86 -37 102 -41 l 28 -6 -21 27 c -23 30 -24 33 -13 52 7 9 20 8 63 -7 30 -10 74 -22 98 -26 l 43 -7 -16 25 c -15 22 -13 57 3 57 3 0 31 -7 61 -15 30 -8 86 -15 124 -15 l 70 0 -27 28 c -15 15 -27 31 -27 35 0 4 52 7 115 7 63 0 115 3 115 6 0 3 -9 19 -20 34 -27 37 -60 110 -60 132 0 15 9 18 45 18 25 0 45 4 45 10 0 5 -32 41 -72 79 l -72 70 28 11 c 15 5 38 7 52 4 13 -3 24 -2 24 3 0 5 -33 42 -72 81 -59 59 -70 74 -58 82 8 5 26 10 39 10 l 24 0 -24 26 c -13 14 -53 47 -88 72 -68 49 -67 59 4 62 l 30 1 -30 24 c -17 14 -66 44 -110 66 -44 23 -82 43 -84 45 -10 9 12 18 52 23 l 42 6 -48 23 c -26 12 -79 32 -117 44 -39 12 -70 27 -70 33 0 6 12 18 27 27 l 27 16 -39 10 c -22 6 -71 14 -110 17 -39 4 -78 9 -87 11 -25 7 -22 30 4 49 22 16 17 17 -87 12 -128 -7 -202 -24 -302 -72 -87 -41 -155 -106 -190 -181 l -25 -56 48 -50 c 141 -144 484 -372 794 -528 47 -24 80 -45 73 -47 -14 -5 -221 73 -374 142 -188 84 -425 224 -586 346 -48 36 -61 34 -121 -16 -145 -122 -112 -359 83 -594 l 50 -61 8 30 c 4 16 12 32 18 35 5 4 46 -31 89 -77 78 -82 79 -82 80 -52 0 17 7 37 15 44 12 10 25 3 75 -44 34 -31 65 -56 71 -56 5 0 9 10 9 23 0 13 6 31 13 41 13 17 16 17 49 -13 27 -24 114 -80 125 -81 1 0 -1 15 -4 34 z m -732 1281 c 173 45 338 168 370 275 35 117 -69 228 -267 282 -118 32 -366 32 -477 0 -187 -54 -307 -154 -307 -256 0 -85 94 -183 244 -256 145 -70 286 -84 437 -45 z m -789 91 c 25 7 22 23 -12 77 -122 193 -669 630 -771 615 -23 -3 -24 -5 -23 -88 5 -371 308 -636 704 -614 47 3 93 8 102 10 z m 1643 37 c 268 87 433 314 435 595 0 50 -4 74 -13 78 -61 23 -368 -192 -618 -434 -113 -109 -204 -223 -196 -246 6 -19 58 -25 187 -22 101 3 140 9 205 29 z m -303 498 c 29 6 82 24 116 40 234 105 394 335 409 584 9 164 -40 297 -148 400 -211 201 -533 167 -769 -82 -191 -202 -245 -485 -134 -705 34 -67 121 -157 183 -191 96 -53 227 -70 343 -46 z m -1161 35 c 143 42 249 144 309 299 20 51 24 78 24 175 0 97 -5 127 -27 195 -71 213 -229 377 -434 447 -258 89 -506 -18 -611 -264 -24 -58 -27 -74 -27 -198 0 -122 3 -142 27 -208 40 -111 84 -178 178 -272 91 -91 182 -146 290 -174 74 -20 204 -20 271 0 z m 1992 315 c 23 12 76 56 118 98 82 82 134 174 160 281 17 68 16 207 0 280 -33 141 -152 320 -204 304 -110 -33 -217 -365 -219 -683 -1 -154 14 -225 57 -268 18 -18 36 -33 39 -33 4 0 26 10 49 21 z m -3000 28 c 38 46 52 119 51 271 -3 332 -120 680 -229 680 -52 0 -169 -186 -194 -308 -16 -77 -13 -225 5 -295 33 -130 113 -247 222 -327 79 -59 109 -63 145 -21 z m 1667 741 c 147 49 265 152 333 289 l 42 84 0 121 c 0 147 -19 206 -98 311 -212 282 -655 308 -910 54 -207 -206 -206 -511 2 -719 161 -159 409 -215 631 -140 z m 1195 193 c 50 28 88 96 111 195 22 100 15 280 -15 374 -43 135 -190 308 -331 391 -196 115 -431 111 -497 -8 -72 -130 -8 -409 142 -620 48 -68 198 -215 265 -261 51 -36 123 -73 160 -85 51 -15 124 -9 165 14 z m -2596 91 c 139 56 331 227 406 361 108 193 136 418 63 510 -67 85 -263 88 -426 6 -96 -49 -217 -155 -279 -245 -121 -179 -150 -501 -55 -607 57 -64 172 -74 291 -25 z m 1422 941 c 170 25 303 83 338 146 13 24 13 31 -4 69 -32 70 -153 174 -269 230 -124 59 -184 74 -301 74 -171 -1 -346 -76 -477 -205 -64 -62 -78 -82 -78 -107 0 -146 437 -261 791 -207 z " />
  </g>
</svg>
